HIERARCHY
ROOT Hips
{
    OFFSET 0.000000 0.000000 0.000000
    CHANNELS 6 Xposition Yposition Zposition Zrotation Xrotation Yrotation
    JOINT Spine
    {
        OFFSET -0.000000 7.236184 0.000000
        CHANNELS 3 Zrotation Xrotation Yrotation
        JOINT Spine1
        {
            OFFSET -0.000000 20.420147 0.000000
            CHANNELS 3 Zrotation Xrotation Yrotation
            JOINT Neck
            {
                OFFSET -0.000000 20.336288 1.848754
                CHANNELS 3 Zrotation Xrotation Yrotation
                JOINT Head
                {
                    OFFSET -0.000000 12.354461 -1.764923
                    CHANNELS 3 Zrotation Xrotation Yrotation
                    End Site
                    {
                        OFFSET -0.000000 22.061537 0.000000
                    }
                }
            }
            JOINT LeftShoulder
            {
                OFFSET 3.573296 18.396038 -0.314103
                CHANNELS 3 Zrotation Xrotation Yrotation
                JOINT LeftArm
                {
                    OFFSET 10.880760 0.000000 0.000000
                    CHANNELS 3 Zrotation Xrotation Yrotation
                    JOINT LeftForeArm
                    {
                        OFFSET 27.185530 0.000000 0.000000
                        CHANNELS 3 Zrotation Xrotation Yrotation
                        JOINT LeftHand
                        {
                            OFFSET 27.825975 0.000000 0.000000
                            CHANNELS 3 Zrotation Xrotation Yrotation
                            End Site
                            {
                                OFFSET 13.236923 0.000000 0.000000
                            }
                        }
                    }
                }
            }
            JOINT RightShoulder
            {
                OFFSET -3.474926 18.396038 -0.314103
                CHANNELS 3 Zrotation Xrotation Yrotation
                JOINT RightArm
                {
                    OFFSET -10.880760 0.000000 0.000000
                    CHANNELS 3 Zrotation Xrotation Yrotation
                    JOINT RightForeArm
                    {
                        OFFSET -27.185530 0.000000 0.000000
                        CHANNELS 3 Zrotation Xrotation Yrotation
                        JOINT RightHand
                        {
                            OFFSET -27.825975 0.000000 0.000000
                            CHANNELS 3 Zrotation Xrotation Yrotation
                            End Site
                            {
                                OFFSET -13.236923 0.000000 0.000000
                            }
                        }
                    }
                }
            }
        }
    }
    JOINT LeftUpLeg
    {
        OFFSET 8.824615 0.000000 0.000000
        CHANNELS 3 Zrotation Xrotation Yrotation
        JOINT LeftLeg
        {
            OFFSET -0.000000 -35.111282 0.000000
            CHANNELS 3 Zrotation Xrotation Yrotation
            JOINT LeftFoot
            {
                OFFSET -0.000000 -42.324711 0.000000
                CHANNELS 3 Zrotation Xrotation Yrotation
                JOINT LeftToeBase
                {
                    OFFSET -0.000000 -5.735999 13.236923
                    CHANNELS 3 Zrotation Xrotation Yrotation
                    End Site
                    {
                        OFFSET -0.000000 0.000000 3.529846
                    }
                }
            }
        }
    }
    JOINT RightUpLeg
    {
        OFFSET -8.824615 0.000000 0.000000
        CHANNELS 3 Zrotation Xrotation Yrotation
        JOINT RightLeg
        {
            OFFSET -0.000000 -35.111282 0.000000
            CHANNELS 3 Zrotation Xrotation Yrotation
            JOINT RightFoot
            {
                OFFSET -0.000000 -42.324711 0.000000
                CHANNELS 3 Zrotation Xrotation Yrotation
                JOINT RightToeBase
                {
                    OFFSET -0.000000 -5.735999 13.236923
                    CHANNELS 3 Zrotation Xrotation Yrotation
                    End Site
                    {
                        OFFSET -0.000000 0.000000 3.529846
                    }
                }
            }
        }
    }
}
MOTION
Frames:    9
Frame Time:    0.008333
-5.642437    84.805717    101.116409    -1.596261    -4.305721    -171.238510    -2.589150    -14.524178    -0.038077    -0.718427    11.067245    0.361762    1.911733    4.900305    -3.835613    7.047330    -2.180227    -3.055345    1.546455    21.750774    -5.590616    -45.563091    42.630978    -39.089207    4.415790    -5.230685    -15.712746    17.037563    -4.432906    1.275236    13.642593    24.092251    -7.686982    33.613388    44.615833    38.650757    -4.536330    -8.918401    20.828016    -13.432565    -7.792096    -2.583028    5.128802    -1.851095    -8.739007    -0.845488    4.100560    1.512266    -8.249075    -5.425169    -8.647967    0.368044    -0.339318    -0.408214    -7.756498    5.410889    -8.353060    1.622014    0.317781    -5.616906    4.107938    -4.792439    -12.896074    -2.218431    -0.664082    2.401553    
-5.634993    84.808289    101.135780    -1.585222    -4.321993    -171.287567    -2.605127    -14.497121    -0.049723    -0.684149    11.063732    0.348047    1.921813    4.893384    -3.826639    7.027033    -2.174874    -3.050789    1.524590    21.782547    -5.577526    -45.833035    42.380116    -38.873474    4.407467    -5.477404    -15.617669    16.759823    -4.692221    1.246097    13.660647    24.081079    -7.716132    33.673302    44.648560    38.577820    -4.568451    -9.056458    20.816145    -13.587134    -7.917062    -2.622206    5.135243    -1.865607    -8.749850    -0.836030    4.087184    1.589069    -8.256013    -5.417924    -8.660841    0.365185    -0.326146    -0.405033    -7.740228    5.302041    -8.407357    1.587189    0.419295    -5.667876    4.128357    -4.794276    -12.746545    -2.215107    -0.665900    2.397961    
-5.627645    84.810822    101.154732    -1.574359    -4.338107    -171.336227    -2.621011    -14.470731    -0.061206    -0.650353    11.059906    0.334657    1.931840    4.886450    -3.817974    7.007429    -2.169576    -3.046408    1.502740    21.814285    -5.564363    -46.099606    42.126488    -38.661903    4.401849    -5.716368    -15.521279    16.490898    -4.942842    1.219394    13.678431    24.069283    -7.745229    33.732895    44.680496    38.504524    -4.598955    -9.194209    20.804359    -13.742134    -8.041910    -2.661421    5.141659    -1.879574    -8.761948    -0.826803    4.073614    1.666376    -8.262255    -5.410794    -8.673320    0.362163    -0.313232    -0.401673    -7.724072    5.194518    -8.461410    1.552453    0.519606    -5.717730    4.148758    -4.796074    -12.598608    -2.211889    -0.667870    2.394484    
-5.620282    84.813377    101.173386    -1.563516    -4.354478    -171.385452    -2.636942    -14.444825    -0.072533    -0.616841    11.055079    0.321390    1.941931    4.879995    -3.809664    6.989038    -2.165220    -3.042144    1.480411    21.846670    -5.550899    -46.368607    41.862408    -38.450218    4.400147    -5.948596    -15.420101    16.224834    -5.185714    1.196180    13.696353    24.055977    -7.774666    33.793816    44.712120    38.428291    -4.627213    -9.334942    20.792072    -13.901711    -8.169942    -2.700957    5.148138    -1.893135    -8.776037    -0.817719    4.059492    1.746082    -8.267253    -5.403861    -8.685421    0.358846    -0.299862    -0.397984    -7.708046    5.086973    -8.515228    1.517887    0.619701    -5.766258    4.169116    -4.797942    -12.451468    -2.208763    -0.669939    2.391106    
-5.612943    84.815926    101.191544    -1.552809    -4.371170    -171.435165    -2.652810    -14.419899    -0.083675    -0.584004    11.048993    0.308542    1.952122    4.873758    -3.801960    6.972035    -2.161232    -3.038294    1.457147    21.879704    -5.536983    -46.639141    41.585991    -38.238907    4.403022    -6.172056    -15.313320    15.957685    -5.418888    1.176039    13.714312    24.040747    -7.804495    33.855873    44.743057    38.348938    -4.651621    -9.478476    20.778883    -14.065627    -8.301385    -2.740124    5.154706    -1.906210    -8.791368    -0.809003    4.044796    1.827126    -8.270464    -5.397331    -8.696811    0.355124    -0.285493    -0.393846    -7.692920    4.980824    -8.566494    1.485044    0.717785    -5.810394    4.188240    -4.799926    -12.310510    -2.205708    -0.671977    2.387807    
-5.605501    84.818474    101.209343    -1.542034    -4.388551    -171.486298    -2.668716    -14.395991    -0.094621    -0.551484    11.041412    0.296037    1.962881    4.867535    -3.794971    6.955681    -2.157658    -3.035094    1.432507    21.913685    -5.522420    -46.915970    41.290085    -38.024311    4.410693    -6.390719    -15.198019    15.679709    -5.646750    1.157554    13.732211    24.023245    -7.835239    33.920681    44.773693    38.265133    -4.671496    -9.627379    20.763363    -14.236810    -8.438866    -2.779151    5.161549    -1.919147    -8.806495    -0.800593    4.029624    1.909396    -8.271507    -5.391371    -8.707769    0.350960    -0.270650    -0.389218    -7.679118    4.875855    -8.613252    1.455179    0.813479    -5.846947    4.205060    -4.802150    -12.179887    -2.202728    -0.674332    2.384588    
-5.597999    84.820984    101.226685    -1.531393    -4.406761    -171.538651    -2.684466    -14.373396    -0.105121    -0.519817    11.031945    0.283929    1.974028    4.861573    -3.788946    6.940271    -2.154474    -3.032775    1.406410    21.948257    -5.507199    -47.197529    40.973324    -37.807446    4.422481    -6.604755    -15.074035    15.389086    -5.869803    1.139327    13.749594    24.003647    -7.866540    33.988586    44.803318    38.176907    -4.685550    -9.780399    20.744612    -14.414195    -8.581468    -2.817753    5.168595    -1.932123    -8.820121    -0.792593    4.014195    1.990697    -8.270277    -5.386166    -8.717522    0.346434    -0.254684    -0.384186    -7.667428    4.773412    -8.653257    1.429720    0.904927    -5.873166    4.218498    -4.804533    -12.064676    -2.199646    -0.676940    2.381262    
-5.590353    84.823479    101.243591    -1.520776    -4.426037    -171.592743    -2.700003    -14.352627    -0.115123    -0.488901    11.020709    0.272263    1.985452    4.855593    -3.784084    6.925652    -2.150899    -3.031605    1.377891    21.983110    -5.491138    -47.485615    40.630356    -37.585896    4.436992    -6.817891    -14.940159    15.082190    -6.092162    1.120240    13.766582    23.982216    -7.898475    34.060863    44.831169    38.083378    -4.692892    -9.937876    20.720709    -14.598119    -8.729815    -2.855480    5.176026    -1.945263    -8.831550    -0.785140    3.998307    2.071934    -8.266766    -5.381456    -8.727041    0.341805    -0.237485    -0.379041    -7.657911    4.673277    -8.685466    1.409071    0.991961    -5.888333    4.228176    -4.806985    -11.966060    -2.196435    -0.679878    2.377795    
-5.582464    84.825928    101.260170    -1.510110    -4.446548    -171.649124    -2.715221    -14.333306    -0.124769    -0.458688    11.007155    0.261229    1.997028    4.849817    -3.780574    6.911587    -2.147189    -3.031761    1.346726    22.017719    -5.473802    -47.782715    40.254436    -37.357689    4.451606    -7.035278    -14.794243    14.755820    -6.319613    1.099215    13.782739    23.959707    -7.931510    34.139397    44.856079    37.984062    -4.692737    -10.100345    20.689363    -14.787970    -8.884774    -2.891880    5.183820    -1.958790    -8.840121    -0.777926    3.982173    2.152818    -8.261553    -5.377328    -8.736148    0.337501    -0.219613    -0.374256    -7.650421    4.574652    -8.710033    1.392905    1.075337    -5.892501    4.234441    -4.809581    -11.883219    -2.193135    -0.682911    2.374233    
